<svg width="837" height="359" viewBox="0 0 837 359" fill="none" xmlns="http://www.w3.org/2000/svg">
<path fill-rule="evenodd" clip-rule="evenodd" d="M143.5 254.409L52.6482 97.0486H234.352L143.5 254.409ZM154.384 275.775C149.547 284.153 137.453 284.153 132.616 275.775L28.7026 95.7918C23.8651 87.413 29.9119 76.9395 39.5869 76.9395H247.413C257.088 76.9395 263.135 87.413 258.297 95.7918L154.384 275.775Z" fill="#7C3AED"/>
<path d="M136.797 155.801L44.1266 102.298L52.9243 87.0595L145.595 140.563L136.797 155.801Z" fill="#7C3AED"/>
<path d="M237.883 84.8594L141.41 140.558L150.208 155.796L246.681 100.097L237.883 84.8594Z" fill="#7C3AED"/>
<path d="M152.301 278.684V139.956H134.705V278.684H152.301Z" fill="#7C3AED"/>
<path d="M285.98 107.7C285.98 98.9107 287.943 91.06 291.868 84.148C295.879 77.1507 301.297 71.732 308.124 67.892C315.036 63.9667 322.759 62.004 331.292 62.004C341.276 62.004 350.023 64.564 357.532 69.684C365.041 74.804 370.289 81.8867 373.276 90.932H352.668C350.62 86.6653 347.719 83.4653 343.964 81.332C340.295 79.1987 336.028 78.132 331.164 78.132C325.959 78.132 321.308 79.3693 317.212 81.844C313.201 84.2333 310.044 87.6467 307.74 92.084C305.521 96.5213 304.412 101.727 304.412 107.7C304.412 113.588 305.521 118.793 307.74 123.316C310.044 127.753 313.201 131.209 317.212 133.684C321.308 136.073 325.959 137.268 331.164 137.268C336.028 137.268 340.295 136.201 343.964 134.068C347.719 131.849 350.62 128.607 352.668 124.34H373.276C370.289 133.471 365.041 140.596 357.532 145.716C350.108 150.751 341.361 153.268 331.292 153.268C322.759 153.268 315.036 151.348 308.124 147.508C301.297 143.583 295.879 138.164 291.868 131.252C287.943 124.34 285.98 116.489 285.98 107.7ZM420.07 153.652C413.243 153.652 407.099 152.159 401.638 149.172C396.177 146.1 391.867 141.791 388.71 136.244C385.638 130.697 384.102 124.297 384.102 117.044C384.102 109.791 385.681 103.391 388.838 97.844C392.081 92.2973 396.475 88.0307 402.022 85.044C407.569 81.972 413.755 80.436 420.582 80.436C427.409 80.436 433.595 81.972 439.142 85.044C444.689 88.0307 449.041 92.2973 452.198 97.844C455.441 103.391 457.062 109.791 457.062 117.044C457.062 124.297 455.398 130.697 452.07 136.244C448.827 141.791 444.39 146.1 438.758 149.172C433.211 152.159 426.982 153.652 420.07 153.652ZM420.07 138.036C423.313 138.036 426.342 137.268 429.158 135.732C432.059 134.111 434.363 131.721 436.07 128.564C437.777 125.407 438.63 121.567 438.63 117.044C438.63 110.303 436.838 105.14 433.254 101.556C429.755 97.8867 425.446 96.052 420.326 96.052C415.206 96.052 410.897 97.8867 407.398 101.556C403.985 105.14 402.278 110.303 402.278 117.044C402.278 123.785 403.942 128.991 407.27 132.66C410.683 136.244 414.95 138.036 420.07 138.036ZM497.343 153.652C491.54 153.652 486.335 152.628 481.727 150.58C477.119 148.447 473.45 145.588 470.719 142.004C468.074 138.42 466.623 134.452 466.367 130.1H484.415C484.756 132.831 486.079 135.092 488.383 136.884C490.772 138.676 493.716 139.572 497.215 139.572C500.628 139.572 503.274 138.889 505.151 137.524C507.114 136.159 508.095 134.409 508.095 132.276C508.095 129.972 506.9 128.265 504.511 127.156C502.207 125.961 498.495 124.681 493.375 123.316C488.084 122.036 483.732 120.713 480.319 119.348C476.991 117.983 474.09 115.892 471.615 113.076C469.226 110.26 468.031 106.463 468.031 101.684C468.031 97.7587 469.14 94.1747 471.359 90.932C473.663 87.6893 476.906 85.1293 481.087 83.252C485.354 81.3747 490.346 80.436 496.063 80.436C504.511 80.436 511.252 82.5693 516.287 86.836C521.322 91.0173 524.095 96.692 524.607 103.86H507.455C507.199 101.044 506.004 98.8253 503.871 97.204C501.823 95.4973 499.05 94.644 495.551 94.644C492.308 94.644 489.791 95.2413 487.999 96.436C486.292 97.6307 485.439 99.2947 485.439 101.428C485.439 103.817 486.634 105.652 489.023 106.932C491.412 108.127 495.124 109.364 500.159 110.644C505.279 111.924 509.503 113.247 512.831 114.612C516.159 115.977 519.018 118.111 521.407 121.012C523.882 123.828 525.162 127.583 525.247 132.276C525.247 136.372 524.095 140.041 521.791 143.284C519.572 146.527 516.33 149.087 512.063 150.964C507.882 152.756 502.975 153.652 497.343 153.652ZM628.021 80.564C636.725 80.564 643.722 83.252 649.013 88.628C654.389 93.9187 657.077 101.343 657.077 110.9V152.5H639.157V113.332C639.157 107.785 637.749 103.561 634.933 100.66C632.117 97.6733 628.277 96.18 623.413 96.18C618.549 96.18 614.666 97.6733 611.765 100.66C608.949 103.561 607.541 107.785 607.541 113.332V152.5H589.621V113.332C589.621 107.785 588.213 103.561 585.397 100.66C582.581 97.6733 578.741 96.18 573.877 96.18C568.928 96.18 565.002 97.6733 562.101 100.66C559.285 103.561 557.877 107.785 557.877 113.332V152.5H539.957V81.588H557.877V90.164C560.181 87.1773 563.125 84.8307 566.709 83.124C570.378 81.4173 574.389 80.564 578.741 80.564C584.288 80.564 589.237 81.7587 593.589 84.148C597.941 86.452 601.312 89.78 603.701 94.132C606.005 90.036 609.333 86.7507 613.685 84.276C618.122 81.8013 622.901 80.564 628.021 80.564ZM740.002 115.508C740.002 118.068 739.831 120.372 739.49 122.42H687.65C688.077 127.54 689.869 131.551 693.026 134.452C696.183 137.353 700.066 138.804 704.674 138.804C711.33 138.804 716.066 135.945 718.882 130.228H738.21C736.162 137.055 732.237 142.687 726.434 147.124C720.631 151.476 713.506 153.652 705.058 153.652C698.231 153.652 692.087 152.159 686.626 149.172C681.25 146.1 677.026 141.791 673.954 136.244C670.967 130.697 669.474 124.297 669.474 117.044C669.474 109.705 670.967 103.263 673.954 97.716C676.941 92.1693 681.122 87.9027 686.498 84.916C691.874 81.9293 698.061 80.436 705.058 80.436C711.799 80.436 717.815 81.8867 723.106 84.788C728.482 87.6893 732.621 91.828 735.522 97.204C738.509 102.495 740.002 108.596 740.002 115.508ZM721.442 110.388C721.357 105.78 719.693 102.111 716.45 99.38C713.207 96.564 709.239 95.156 704.546 95.156C700.109 95.156 696.354 96.5213 693.282 99.252C690.295 101.897 688.461 105.609 687.778 110.388H721.442Z" fill="#7C3AED"/>
<line x1="245.5" y1="198" x2="780.5" y2="198" stroke="#7C3AED" stroke-width="11"/>
<path d="M294.24 256.604L277.824 309.5H266.304L255.648 270.428L244.992 309.5H233.472L216.96 256.604H228.096L239.136 299.132L250.368 256.604H261.792L272.544 298.94L283.488 256.604H294.24ZM350.899 281.756C350.899 283.74 350.771 285.532 350.515 287.132H310.099C310.419 291.356 311.987 294.748 314.803 297.308C317.619 299.868 321.075 301.148 325.171 301.148C331.059 301.148 335.219 298.684 337.651 293.756H349.459C347.859 298.62 344.947 302.62 340.723 305.756C336.563 308.828 331.379 310.364 325.171 310.364C320.115 310.364 315.571 309.244 311.539 307.004C307.571 304.7 304.435 301.5 302.131 297.404C299.891 293.244 298.771 288.444 298.771 283.004C298.771 277.564 299.859 272.796 302.035 268.7C304.275 264.54 307.379 261.34 311.347 259.1C315.379 256.86 319.987 255.74 325.171 255.74C330.163 255.74 334.611 256.828 338.515 259.004C342.419 261.18 345.459 264.252 347.635 268.22C349.811 272.124 350.899 276.636 350.899 281.756ZM339.475 278.3C339.411 274.268 337.971 271.036 335.155 268.604C332.339 266.172 328.851 264.956 324.691 264.956C320.915 264.956 317.683 266.172 314.995 268.604C312.307 270.972 310.707 274.204 310.195 278.3H339.475ZM372.613 264.476C374.469 261.916 376.997 259.836 380.197 258.236C383.461 256.572 387.077 255.74 391.045 255.74C395.717 255.74 399.941 256.86 403.717 259.1C407.493 261.34 410.469 264.54 412.645 268.7C414.821 272.796 415.909 277.5 415.909 282.812C415.909 288.124 414.821 292.892 412.645 297.116C410.469 301.276 407.461 304.54 403.621 306.908C399.845 309.212 395.653 310.364 391.045 310.364C386.949 310.364 383.301 309.564 380.101 307.964C376.965 306.364 374.469 304.316 372.613 301.82V309.5H361.669V238.46H372.613V264.476ZM404.773 282.812C404.773 279.164 404.005 276.028 402.469 273.404C400.997 270.716 399.013 268.7 396.517 267.356C394.085 265.948 391.461 265.244 388.645 265.244C385.893 265.244 383.269 265.948 380.773 267.356C378.341 268.764 376.357 270.812 374.821 273.5C373.349 276.188 372.613 279.356 372.613 283.004C372.613 286.652 373.349 289.852 374.821 292.604C376.357 295.292 378.341 297.34 380.773 298.748C383.269 300.156 385.893 300.86 388.645 300.86C391.461 300.86 394.085 300.156 396.517 298.748C399.013 297.276 400.997 295.164 402.469 292.412C404.005 289.66 404.773 286.46 404.773 282.812ZM448.021 282.812C448.021 277.5 449.109 272.796 451.285 268.7C453.525 264.604 456.533 261.436 460.309 259.196C464.149 256.892 468.373 255.74 472.981 255.74C477.141 255.74 480.757 256.572 483.829 258.236C486.965 259.836 489.461 261.852 491.317 264.284V256.604H502.357V309.5H491.317V301.628C489.461 304.124 486.933 306.204 483.733 307.868C480.533 309.532 476.885 310.364 472.789 310.364C468.245 310.364 464.085 309.212 460.309 306.908C456.533 304.54 453.525 301.276 451.285 297.116C449.109 292.892 448.021 288.124 448.021 282.812ZM491.317 283.004C491.317 279.356 490.549 276.188 489.013 273.5C487.541 270.812 485.589 268.764 483.157 267.356C480.725 265.948 478.101 265.244 475.285 265.244C472.469 265.244 469.845 265.948 467.413 267.356C464.981 268.7 462.997 270.716 461.461 273.404C459.989 276.028 459.253 279.164 459.253 282.812C459.253 286.46 459.989 289.66 461.461 292.412C462.997 295.164 464.981 297.276 467.413 298.748C469.909 300.156 472.533 300.86 475.285 300.86C478.101 300.86 480.725 300.156 483.157 298.748C485.589 297.34 487.541 295.292 489.013 292.604C490.549 289.852 491.317 286.652 491.317 283.004ZM538.043 255.74C542.139 255.74 545.755 256.572 548.891 258.236C552.091 259.836 554.587 261.852 556.379 264.284V256.604H567.419V310.364C567.419 315.228 566.395 319.548 564.347 323.324C562.299 327.164 559.323 330.172 555.419 332.348C551.579 334.524 546.971 335.612 541.595 335.612C534.427 335.612 528.475 333.916 523.739 330.524C519.003 327.196 516.315 322.652 515.675 316.892H526.523C527.355 319.644 529.115 321.852 531.803 323.516C534.555 325.244 537.819 326.108 541.595 326.108C546.011 326.108 549.563 324.764 552.251 322.076C555.003 319.388 556.379 315.484 556.379 310.364V301.532C554.523 304.028 551.995 306.14 548.795 307.868C545.659 309.532 542.075 310.364 538.043 310.364C533.435 310.364 529.211 309.212 525.371 306.908C521.595 304.54 518.587 301.276 516.347 297.116C514.171 292.892 513.083 288.124 513.083 282.812C513.083 277.5 514.171 272.796 516.347 268.7C518.587 264.604 521.595 261.436 525.371 259.196C529.211 256.892 533.435 255.74 538.043 255.74ZM556.379 283.004C556.379 279.356 555.611 276.188 554.075 273.5C552.603 270.812 550.651 268.764 548.219 267.356C545.787 265.948 543.163 265.244 540.347 265.244C537.531 265.244 534.907 265.948 532.475 267.356C530.043 268.7 528.059 270.716 526.523 273.404C525.051 276.028 524.315 279.164 524.315 282.812C524.315 286.46 525.051 289.66 526.523 292.412C528.059 295.164 530.043 297.276 532.475 298.748C534.971 300.156 537.595 300.86 540.347 300.86C543.163 300.86 545.787 300.156 548.219 298.748C550.651 297.34 552.603 295.292 554.075 292.604C555.611 289.852 556.379 286.652 556.379 283.004ZM630.274 281.756C630.274 283.74 630.146 285.532 629.89 287.132H589.474C589.794 291.356 591.362 294.748 594.178 297.308C596.994 299.868 600.45 301.148 604.546 301.148C610.434 301.148 614.594 298.684 617.026 293.756H628.834C627.234 298.62 624.322 302.62 620.098 305.756C615.938 308.828 610.754 310.364 604.546 310.364C599.49 310.364 594.946 309.244 590.914 307.004C586.946 304.7 583.81 301.5 581.506 297.404C579.266 293.244 578.146 288.444 578.146 283.004C578.146 277.564 579.234 272.796 581.41 268.7C583.65 264.54 586.754 261.34 590.722 259.1C594.754 256.86 599.362 255.74 604.546 255.74C609.538 255.74 613.986 256.828 617.89 259.004C621.794 261.18 624.834 264.252 627.01 268.22C629.186 272.124 630.274 276.636 630.274 281.756ZM618.85 278.3C618.786 274.268 617.346 271.036 614.53 268.604C611.714 266.172 608.226 264.956 604.066 264.956C600.29 264.956 597.058 266.172 594.37 268.604C591.682 270.972 590.082 274.204 589.57 278.3H618.85ZM667.732 255.74C671.892 255.74 675.604 256.604 678.868 258.332C682.196 260.06 684.788 262.62 686.644 266.012C688.5 269.404 689.428 273.5 689.428 278.3V309.5H678.58V279.932C678.58 275.196 677.396 271.58 675.028 269.084C672.66 266.524 669.428 265.244 665.332 265.244C661.236 265.244 657.972 266.524 655.54 269.084C653.172 271.58 651.988 275.196 651.988 279.932V309.5H641.044V256.604H651.988V262.652C653.78 260.476 656.052 258.78 658.804 257.564C661.62 256.348 664.596 255.74 667.732 255.74ZM699.74 283.004C699.74 277.564 700.828 272.796 703.004 268.7C705.244 264.54 708.316 261.34 712.22 259.1C716.124 256.86 720.604 255.74 725.66 255.74C732.06 255.74 737.34 257.276 741.5 260.348C745.724 263.356 748.572 267.676 750.044 273.308H738.236C737.276 270.684 735.74 268.636 733.628 267.164C731.516 265.692 728.86 264.956 725.66 264.956C721.18 264.956 717.596 266.556 714.908 269.756C712.284 272.892 710.972 277.308 710.972 283.004C710.972 288.7 712.284 293.148 714.908 296.348C717.596 299.548 721.18 301.148 725.66 301.148C731.996 301.148 736.188 298.364 738.236 292.796H750.044C748.508 298.172 745.628 302.46 741.404 305.66C737.18 308.796 731.932 310.364 725.66 310.364C720.604 310.364 716.124 309.244 712.22 307.004C708.316 304.7 705.244 301.5 703.004 297.404C700.828 293.244 699.74 288.444 699.74 283.004ZM808.566 256.604L776.118 334.364H764.79L775.542 308.636L754.71 256.604H766.902L781.782 296.924L797.238 256.604H808.566Z" fill="#7C3AED"/>
</svg>
